<svg xmlns="http://www.w3.org/2000/svg" width="20" height="17" viewBox="0 0 20 17"><path d="M29.177,91.157l-2.408,1.232L15.14,98.34a7.041,7.041,0,0,1-.06-.908,6.922,6.922,0,0,1,10.306-6.068l1.378-.706.206-.105A8.437,8.437,0,0,0,15.152,92.44a8.526,8.526,0,0,0-1.614,4.994q0,.324.024.647a1.548,1.548,0,0,1-.836,1.494L12,99.947v1.736l2.14-1.1h0l.693-.355.683-.35h0l12.26-6.275,1.378-.7L32,91.446V89.71ZM32,93.183l-15.788,8.075-1.378.706L12,103.416v1.735l2.815-1.441,2.408-1.233,11.64-5.959a7.17,7.17,0,0,1,.06.915A6.922,6.922,0,0,1,18.608,103.5l-.085.045-1.494.765a8.437,8.437,0,0,0,11.819-1.885,8.527,8.527,0,0,0,1.614-4.991c0-.218-.008-.437-.024-.653a1.548,1.548,0,0,1,.835-1.494L32,94.914Z" transform="translate(-12 -88.932)"/></svg>