<svg xmlns="http://www.w3.org/2000/svg" width="14.736" height="24" viewBox="0 0 14.736 24"><defs><style>.a{fill:#62688f;}.b{fill:#8a92b2;}.c{fill:#454a75;}</style></defs><g transform="translate(-205 -12)"><path class="a" d="M212.366,583.85,205,579.5l7.364,10.38,7.372-10.38-7.374,4.35Z" transform="translate(0 -553.88)"/><path class="b" d="M212.366,583.85,205,579.5l7.364,10.38,0-6.03Z" transform="translate(0 -553.88)"/><path class="a" d="M212.428,12,205.06,24.223l7.367,4.354,7.367-4.35Z" transform="translate(-0.059)"/><path class="b" d="M212.428,12,205.06,24.223l7.367,4.354Z" transform="translate(-0.059)"/><path class="c" d="M212.428,380.97l-7.368,3.368,7.367,4.354,7.367-4.35Z" transform="translate(-0.059 -360.115)"/><path class="a" d="M212.428,380.97l-7.368,3.368,7.367,4.354Z" transform="translate(-0.059 -360.115)"/></g></svg>