<svg xmlns="http://www.w3.org/2000/svg" width="18" height="24" viewBox="0 0 18 24"><defs><style>.a{fill:#f7931a;}</style></defs><path class="a" d="M146.766,23.219a4.214,4.214,0,0,0,2.152-3.768c0-2.99-2.937-4.392-4.722-4.57-.146-.016-.553-.024-.553-.024V12h-2.913l.007,2.86h-1.948v-2.85h-2.962v2.835c-.521.013-3.656.011-3.656.011v2.532h1.019c1.072.029,1.467.654,1.424,1.224V29.527a.733.733,0,0,1-.662.707c-.444.02-1.108,0-1.108,0l-.571,2.869h3.561v2.891H138.8V33.12h1.947V36h2.9V33.131c3.388.09,6.5-1.935,6.53-5.264A5.137,5.137,0,0,0,146.766,23.219Zm-7.971-.735v-4.9c.448.013,2.085-.029,2.969.018a2.848,2.848,0,0,1,2.33,1.114,2.336,2.336,0,0,1-.578,3.155,3.6,3.6,0,0,1-1.964.607C141.54,22.482,138.839,22.491,138.795,22.484Zm6.56,5.884a2.419,2.419,0,0,1-.888,1.191,3.9,3.9,0,0,1-2.119.657l-3.55.007V24.929c.514.014,2.792-.024,3.78.027a3.056,3.056,0,0,1,2.516,1.207,2.374,2.374,0,0,1,.257,2.212Z" transform="translate(-132.17 -12)"/></svg>