<svg xmlns="http://www.w3.org/2000/svg" width="46" height="42" viewBox="0 0 46 42"><defs><style>.a{fill:#58616c;}</style></defs><path class="a" d="M5.749,42A5.879,5.879,0,0,1,0,36V6A5.879,5.879,0,0,1,5.749,0h34.5A5.879,5.879,0,0,1,46,6V36a5.879,5.879,0,0,1-5.749,6ZM2.875,6V33l7.607-7.06a1.39,1.39,0,0,1,1.811-.186l7.649,5.316L30.607,19.939a1.393,1.393,0,0,1,1.659-.281L43.125,25.5V6a2.941,2.941,0,0,0-2.875-3H5.749A2.941,2.941,0,0,0,2.875,6Zm5.752,7.5A4.41,4.41,0,0,1,12.937,9a4.411,4.411,0,0,1,4.313,4.5A4.409,4.409,0,0,1,12.937,18,4.408,4.408,0,0,1,8.627,13.5Z"/></svg>