<svg xmlns="http://www.w3.org/2000/svg" width="20" height="20" viewBox="0 0 20 20"><defs><style>.a{fill:#639cd5;}</style></defs><path class="a" d="M577-1558a10,10,0,0,1,10-10,10,10,0,0,1,10,10,10,10,0,0,1-10,10A10,10,0,0,1,577-1558Zm16.835,5.462a8.75,8.75,0,0,0,1.05-9.254A8.75,8.75,0,0,0,587-1566.75a8.751,8.751,0,0,0-7.885,4.957,8.752,8.752,0,0,0,1.05,9.255c.888-1.43,2.842-2.962,6.835-2.962S592.947-1553.969,593.835-1552.538ZM583.25-1560.5a3.75,3.75,0,0,1,3.75-3.75,3.75,3.75,0,0,1,3.75,3.75,3.75,3.75,0,0,1-3.75,3.751A3.75,3.75,0,0,1,583.25-1560.5Z" transform="translate(-577 1568)"/></svg>